<svg height="80" viewBox="0 0 80 80" width="80" xmlns="http://www.w3.org/2000/svg"><g fill="none" fill-rule="evenodd"><g transform="translate(1 21)"><path d="m59.2 0h-46.4c-3.2016 0-5.8 2.61907692-5.8 5.84615385v32.15384615h58v-32.15384615c0-3.22707693-2.5984-5.84615385-5.8-5.84615385" fill="#505050"/><path d="m62 34h-52v-31h52z" fill="#567b74"/><path d="m0 39.004c0 2.208 2.61041667 3.996 5.83041667 3.996h58.33916663c3.22 0 5.8304167-1.788 5.8304167-3.996v-2.004h-70z" fill="#cfcece"/></g><g transform="translate(57 16)"><path d="m16 26.25v-22.5c0-2.07125-1.1937778-3.75-2.6666667-3.75h-10.66666663c-1.47288889 0-2.66666667 1.67875-2.66666667 3.75v22.5c0 2.07125 1.19377778 3.75 2.66666667 3.75h10.66666663c1.4728889 0 2.6666667-1.67875 2.6666667-3.75" fill="#505050"/><path d="m15 26.6666667c0 1.288-.784 2.3333333-1.75 2.3333333h-10.5c-.966 0-1.75-1.0453333-1.75-2.3333333v-23.33333337c0-1.288.784-2.33333333 1.75-2.33333333h1.75v.28282828c0 .85866667.5215 1.55555556 1.16666667 1.55555556h4.66666663c.6451667 0 1.1666667-.69688889 1.1666667-1.55555556v-.28282828h1.75c.966 0 1.75 1.04533333 1.75 2.33333333z" fill="#93cabf"/></g><g transform="translate(67 33)"><path d="m2 0h6v20h-6z" fill="#9e9e9e"/><path d="m10 13.75v-7.5c0-.69041667-.74611111-1.25-1.66666667-1.25h-6.66666666c-.92055556 0-1.66666667.55958333-1.66666667 1.25v7.5c0 .6904167.74611111 1.25 1.66666667 1.25h6.66666666c.92055556 0 1.66666667-.5595833 1.66666667-1.25" fill="#505050"/><path d="m9 13.3333333c0 .368-.448.6666667-1 .6666667h-6c-.552 0-1-.2986667-1-.6666667v-6.66666663c0-.368.448-.66666667 1-.66666667h6c.552 0 1 .29866667 1 .66666667z" fill="#000"/></g></g></svg>