<svg height="80" viewBox="0 0 80 80" width="80" xmlns="http://www.w3.org/2000/svg"><g fill="none"><path d="m19.0004291 24.0000007h1.5c3.5898509 0 6.5-2.9101491 6.5-6.5s-2.9101491-6.5-6.5-6.5h-5c-3.2972227-.0015416-6.07275759 2.466994-6.45596101 5.7418735-.38320343 3.2748794 1.74745421 6.3175033 4.95596101 7.0772165v3.18091zm9.77393-4.583c-.8945833 3.8494923-4.3218639 6.5763451-8.27393 6.583h-.946l-3.89527 2.33716c1.0846751 2.2390949 3.353286 3.6616552 5.84127 3.66284h1.5l5 3v-3.18091c2.7837441-.6573908 4.8092597-3.0592075 4.9874057-5.913968.178146-2.8547606-1.5330564-5.4897602-4.2134757-6.488132z" fill="#74da63"/><path d="m28.5 60h-1.5v-4h1.5c2.4852814 0 4.5-2.0147186 4.5-4.5s-2.0147186-4.5-4.5-4.5-4.5 2.0147186-4.5 4.5v1.5h-4v-1.5c0-2.4852814-2.0147186-4.5-4.5-4.5s-4.5 2.0147186-4.5 4.5 2.0147186 4.5 4.5 4.5h1.5v4h-1.5c-2.4852814 0-4.5 2.0147186-4.5 4.5s2.0147186 4.5 4.5 4.5 4.5-2.0147186 4.5-4.5v-1.5h4v1.5c0 2.4852814 2.0147186 4.5 4.5 4.5s4.5-2.0147186 4.5-4.5-2.0147186-4.5-4.5-4.5zm-1.5-8.5c0-.8284271.6715729-1.5 1.5-1.5s1.5.6715729 1.5 1.5-.6715729 1.5-1.5 1.5h-1.5zm-10 13c0 .8284271-.6715729 1.5-1.5 1.5s-1.5-.6715729-1.5-1.5.6715729-1.5 1.5-1.5h1.5zm0-11.5h-1.5c-.8284271 0-1.5-.6715729-1.5-1.5s.6715729-1.5 1.5-1.5 1.5.6715729 1.5 1.5zm7 7h-4v-4h4zm4.5 6c-.8280524-.0009039-1.4990961-.6719476-1.5-1.5v-1.5h1.5c.8284271 0 1.5.6715729 1.5 1.5s-.6715729 1.5-1.5 1.5z" fill="#949494"/><path d="m51.4395966 27.5573685c.2812211.2813739.6627304.4394609 1.060545.4394609.3978147 0 .779324-.158087 1.060545-.4394609l7-7c.3801343-.3786479.5290484-.9315141.3905198-1.4498635s-.5433968-.9232176-1.0617462-1.0617463c-.5183494-.1385286-1.0712157.0103856-1.4498636.3905198l-7 7c-.2813713.2812224-.4394567.6627312-.4394567 1.060545 0 .3978139.1580854.7793227.4394567 1.060545zm3.5 3.07764c-1.1749822 1.1749823-2.8875561 1.633865-4.4926116 1.2037917-1.6050556-.4300733-2.8587467-1.6837644-3.28882-3.28882-.4300734-1.6050556.0288094-3.3176294 1.2037916-4.4926117l3.28882-3.28882-2.1211-2.12109-3.28882 3.28882c-2.9878108 2.9878136-2.9878085 7.8320142.000005 10.819825 2.9878136 2.9878108 7.8320142 2.9878086 10.819825-.000005l3.28882-3.28881-2.1211-2.1211zm10.81933-17.39746c-2.989446-2.983398-7.829884-2.983398-10.81933 0l-3.28882 3.28882 2.12109 2.12109 3.28882-3.28882c1.1749822-1.1749822 2.8875561-1.633865 4.4926117-1.2037916 1.6050556.4300733 2.8587467 1.6837644 3.28882 3.28882.4300733 1.6050555-.0288095 3.3176294-1.2037917 4.4926116l-3.28885 3.28882 2.12109 2.12109 3.28882-3.28882c2.9830301-2.9898637 2.9828244-7.8302099-.00046-10.81982z" fill="#325ab1"/><path d="m65 46h-18c-1.1045558.0000331-1.9999669.8954442-2 2v20c.0000331 1.1045558.8954442 1.9999669 2 2h18c1.1045558-.0000331 1.9999669-.8954442 2-2v-20c-.0000331-1.1045558-.8954442-1.9999669-2-2zm-10 19h-5c-.5522847 0-1-.4477153-1-1s.4477153-1 1-1h5c.5522847 0 1 .4477153 1 1s-.4477153 1-1 1zm7-6h-12c-.5522847 0-1-.4477153-1-1s.4477153-1 1-1h12c.5522847 0 1 .4477153 1 1s-.4477153 1-1 1zm0-6h-12c-.5522847 0-1-.4477153-1-1s.4477153-1 1-1h12c.5522847 0 1 .4477153 1 1s-.4477153 1-1 1z" fill="#c03d3d"/></g></svg>