<svg height="80" viewBox="0 0 80 80" width="80" xmlns="http://www.w3.org/2000/svg"><g fill="none" fill-rule="evenodd"><g transform="translate(4 4)"><rect fill="#fdf6e3" fill-rule="evenodd" height="35" rx="9" width="35"/><rect height="34.5" rx="9" stroke="#979797" stroke-width=".5" width="34.5" x=".25" y=".25"/><path d="m16.7988281 24-1.2890625-3.8085938h-5.3710937l-1.28906252 3.8085938h-2.27539063l5.08789065-14.09179688h2.3632812l5.0878906 14.09179688zm-4.0039062-11.7480469-2.0996094 6.1816407h4.2578125l-2.0996094-6.1816407zm11.1621093 10.2246094c1.4941407 0 2.6269532-.9960937 2.6269532-2.3242187v-.7910157l-2.4609375.15625c-1.3671875.078125-2.0898438.6054688-2.0898438 1.4941407 0 .859375.7519531 1.4648437 1.9238281 1.4648437zm-.5859374 1.6699219c-2.0410157 0-3.4570313-1.2597656-3.4570313-3.0859375 0-1.796875 1.3769531-2.8515625 3.9355469-3.0078125l2.734375-.15625v-.78125c0-1.1621094-.7714844-1.7871094-2.109375-1.7871094-1.1035156 0-1.9140625.5664062-2.0800782 1.4453125h-1.9726562c.0585938-1.8359375 1.7773438-3.1738281 4.1113281-3.1738281 2.5195313 0 4.1503907 1.3183594 4.1503907 3.359375v7.0410156h-2.0214844v-1.6894531h-.0488282c-.5761718 1.1035156-1.8554687 1.8359375-3.2421874 1.8359375z" fill="#586e75"/></g><g transform="translate(42 4)"><rect fill="#000" fill-rule="evenodd" height="35" rx="9" width="35"/><rect height="34.5" rx="9" stroke="#979797" stroke-width=".5" width="34.5" x=".25" y=".25"/><path d="m16.7988281 24-1.2890625-3.8085938h-5.3710937l-1.28906252 3.8085938h-2.27539063l5.08789065-14.09179688h2.3632812l5.0878906 14.09179688zm-4.0039062-11.7480469-2.0996094 6.1816407h4.2578125l-2.0996094-6.1816407zm11.1621093 10.2246094c1.4941407 0 2.6269532-.9960937 2.6269532-2.3242187v-.7910157l-2.4609375.15625c-1.3671875.078125-2.0898438.6054688-2.0898438 1.4941407 0 .859375.7519531 1.4648437 1.9238281 1.4648437zm-.5859374 1.6699219c-2.0410157 0-3.4570313-1.2597656-3.4570313-3.0859375 0-1.796875 1.3769531-2.8515625 3.9355469-3.0078125l2.734375-.15625v-.78125c0-1.1621094-.7714844-1.7871094-2.109375-1.7871094-1.1035156 0-1.9140625.5664062-2.0800782 1.4453125h-1.9726562c.0585938-1.8359375 1.7773438-3.1738281 4.1113281-3.1738281 2.5195313 0 4.1503907 1.3183594 4.1503907 3.359375v7.0410156h-2.0214844v-1.6894531h-.0488282c-.5761718 1.1035156-1.8554687 1.8359375-3.2421874 1.8359375z" fill="#fff"/></g><rect fill="#000" fill-rule="evenodd" height="35" rx="9" width="35" x="4" y="41"/><rect height="34.5" rx="9" stroke="#979797" stroke-width=".5" width="34.5" x="4.25" y="41.25"/><g stroke="#fff" stroke-linecap="round" stroke-linejoin="round" transform="translate(14 51)"><path d="m0 4h11.5092561v11.0000033" stroke-width="1.5" transform="matrix(-1 0 0 -1 11.509256 19.000004)"/><path d="m3.5 0h11.5092561v11.0000033" stroke-width="1.5"/><path d="m6 3h6.274213v6.03769658"/></g><rect fill="#f8f8f8" fill-rule="evenodd" height="35" rx="9" width="35" x="42" y="41"/><rect height="34.5" rx="9" stroke="#979797" stroke-width=".5" width="34.5" x="42.25" y="41.25"/><g stroke="#000" stroke-linecap="round" stroke-linejoin="round" transform="translate(52 51)"><path d="m0 4h11.5092561v11.0000033" stroke-width="1.5" transform="matrix(-1 0 0 -1 11.509256 19.000004)"/><path d="m3.5 0h11.5092561v11.0000033" stroke-width="1.5"/><path d="m6 3h6.274213v6.03769658"/></g></g></svg>