<svg height="80" viewBox="0 0 80 80" width="80" xmlns="http://www.w3.org/2000/svg"><g fill="none" fill-rule="evenodd"><path d="m22.017334 65h-1.9169922v-7.5791016h-2.6469727v-1.5805664h7.2172852v1.5805664h-2.6533203zm3.5991211 0v-9.159668h1.8217773v3.5800782h.038086c.3808593-.869629 1.1044921-1.3266602 2.1391601-1.3266602 1.5107422 0 2.3740235.9775391 2.3740235 2.5517578v4.3544922h-1.8535157v-3.9609375c0-.8759766-.4316406-1.4091797-1.2758789-1.4091797-.8759765 0-1.3901367.6157227-1.3901367 1.5107422v3.859375zm10.1816406-1.2441406c.8188477 0 1.4726563-.5205078 1.4726563-1.2504883v-.4887695l-1.4028321.0888672c-.7363281.0507812-1.1298828.349121-1.1298828.8315429 0 .4951172.4189453.8188477 1.0600586.8188477zm-.609375 1.3457031c-1.3076172 0-2.2978516-.8442383-2.2978516-2.0629883 0-1.237793.9521485-1.9423828 2.6977539-2.0439453l1.682129-.1015625v-.4443359c0-.6411133-.444336-.9902344-1.1679688-.9902344-.6411133 0-1.0981445.3364258-1.1806641.8251953h-1.6884765c.0507812-1.3139648 1.2250976-2.2089844 2.9516601-2.2089844 1.7519532 0 2.9072266.9013672 2.9072266 2.2597657v4.6655273h-1.7900391v-1.0410156h-.0380859c-.3745117.7109375-1.2124023 1.1425781-2.0756836 1.1425781zm5.097168-.1015625v-6.8046875h1.790039v1.2250977h.038086c.387207-.869629 1.0791015-1.3266602 2.1264648-1.3266602 1.5107422 0 2.3613281.9521484 2.3613281 2.5454102v4.3608398h-1.8535156v-3.9736328c0-.8886719-.4125976-1.3964844-1.2568359-1.3964844-.8378906 0-1.3520508.609375-1.3520508 1.4980469v3.8720703zm9.4135742-4.0751953 2.3105469-2.7294922h2.1010742l-2.5961914 2.9199219 2.7231445 3.8847656h-2.1328125l-1.9487305-2.7675781-.4824218.5205078v2.2470703h-1.8535157v-9.159668h1.8535157v5.0844727zm4.8305664-.7172852c0-1.2885742 1.1235352-2.1328125 2.8691406-2.1328125 1.7011719 0 2.8247071.8569336 2.84375 2.1708985h-1.7075195c-.0317383-.5332032-.4760742-.8696289-1.1616211-.8696289-.6347656 0-1.0600586.2856445-1.0600586.7172851 0 .3300781.2919922.5522461.8886719.6918945l1.3012695.2792969c1.3647461.3046875 1.9169922.8378907 1.9169922 1.847168 0 1.3330078-1.2314453 2.2089844-3.027832 2.2089844-1.8154297 0-2.9389649-.8696289-3.0341797-2.1899414h1.809082c.0825195.5649414.5395508.8886718 1.2758789.8886718.6982422 0 1.1298828-.2729492 1.1298828-.7109375 0-.3364257-.2285156-.5205078-.8378906-.6665039l-1.2568359-.2792968c-1.2885743-.2919922-1.9487305-.9584961-1.9487305-1.9550782zm7.3125-4.3671875h1.9042969l-.1523438 6.1445313h-1.5996094zm.9521484 9.3183594c-.5776367 0-1.0346679-.4379883-1.0346679-.996582 0-.5585938.4570312-.9965821 1.0346679-.9965821.5776368 0 1.034668.4379883 1.034668.9965821 0 .5585937-.4570312.996582-1.034668.996582z" fill="#2f2323"/><g fill="#3488c8" fill-rule="nonzero" transform="translate(25 16)"><path d="m26.0741992 22.5370996c0 .8079376.6549628 1.4629004 1.4629004 1.4629004s1.4629004-.6549628 1.4629004-1.4629004v-21.07419921c0-.80793757-.6549628-1.46290039-1.4629004-1.46290039h-21.07419921c-.80793758 0-1.46290039.65496282-1.46290039 1.46290039 0 .80793758.65496281 1.46290039 1.46290039 1.46290039h19.61129881z"/><path d="m21.1664408 8.8335592v8.2496612c0 .5063234.4104562.9167796.9167796.9167796s.9167796-.4104562.9167796-.9167796v-9.1664408c0-.50632339-.4104562-.9167796-.9167796-.9167796h-9.1664408c-.5063234 0-.9167796.41045621-.9167796.9167796s.4104562.9167796.9167796.9167796z"/><path d="m21.0741992 7.92580078v19.61129882c0 .8079376.6549628 1.4629004 1.4629004 1.4629004s1.4629004-.6549628 1.4629004-1.4629004v-21.07419921c0-.80793758-.6549628-1.46290039-1.4629004-1.46290039h-21.07419921c-.80793757 0-1.46290039.65496281-1.46290039 1.46290039s.65496282 1.46290039 1.46290039 1.46290039z" transform="matrix(-1 0 0 -1 24 34)"/></g></g></svg>