<svg height="80" viewBox="0 0 80 80" width="80" xmlns="http://www.w3.org/2000/svg"><g fill="none" fill-rule="evenodd" transform="translate(12 12)"><path d="m16.9131554 0 22.0868446 16.9621381-22.0868446 17.0378619v-8.6325167h-16.86837137v-12.116751s-.37752102-1.8164339 1.05963667-3.48235814c1.4371577-1.66592427 3.9332737-1.51447661 3.9332737-1.51447661h11.9520583z" fill="#9d9d9d"/><path d="m39.0868446 56-22.0868446-16.9621381 22.0868446-17.0378619v8.6325167h16.8683714v12.116751s.377521 1.8164339-1.0596367 3.4823581c-1.4371577 1.6659243-3.9332737 1.5144766-3.9332737 1.5144766h-11.9520583z" fill="#9d9d9d"/><g fill="#fff"><path d="m.92288525 8.35708888c.51589859 0 .92288525-.41326264.92288525-.92410117 0-.5165783-.40698666-.92410118-.92288525-.92410118s-.92288525.40752288-.92288525.92410118c0 .51083853.40698666.92410117.92288525.92410117zm0-4.10392758c.51589859 0 .92288525-.41326263.92288525-.92410117 0-.5165783-.40698666-.92410117-.92288525-.92410117s-.92288525.40752287-.92288525.92410117c0 .51083854.40698666.92410117.92288525.92410117zm3.42258587 5.71679982 2.40752674-9.96996112h-1.55916017l-2.37886571 9.96996112zm4.20216596 0 2.40752672-9.96996112h-1.55916016l-2.37886571 9.96996112z" transform="translate(4 12)"/><path d="m.92288525 8.35708888c.51589859 0 .92288525-.41326264.92288525-.92410117 0-.5165783-.40698666-.92410118-.92288525-.92410118s-.92288525.40752288-.92288525.92410118c0 .51083853.40698666.92410117.92288525.92410117zm0-4.10392758c.51589859 0 .92288525-.41326263.92288525-.92410117 0-.5165783-.40698666-.92410117-.92288525-.92410117s-.92288525.40752287-.92288525.92410117c0 .51083854.40698666.92410117.92288525.92410117zm3.42258587 5.71679982 2.40752674-9.96996112h-1.55916017l-2.37886571 9.96996112zm4.20216596 0 2.40752672-9.96996112h-1.55916016l-2.37886571 9.96996112z" transform="translate(42 34)"/></g></g></svg>