<svg height="80" viewBox="0 0 80 80" width="80" xmlns="http://www.w3.org/2000/svg"><g fill="none" fill-rule="evenodd"><rect fill="#bfceca" height="62" opacity=".276268" rx="6" width="67" x="6" y="10"/><path d="m6 16c0-3.3137085 2.6862915-6 6-6h55c3.3137085 0 6 2.6862915 6 6v7.5h-67z" fill="#9fb9b2" opacity=".276268"/><path d="m21.0566406 15.1298828v1.7841797h1.0605469c.6152344 0 .9726563-.328125.9726563-.8935547 0-.5595703-.3720704-.890625-.9873047-.890625zm0 2.1386719v1.7314453h-.3984375v-4.2275391h1.491211c.8261718 0 1.3535156.4833985 1.3535156 1.2363282 0 .5976562-.3398438 1.0488281-.9052735 1.1953125l1.0253907 1.7958984h-.46875l-.9726563-1.7314453zm5.6484375 1.3681641v.3632812h-2.5517578v-4.2275391h2.5517578v.3632813h-2.1533203v1.5205078h2.0449219v.3574219h-2.0449219v1.6230469zm2.3964844.430664c-1.1513672 0-1.8837891-.852539-1.8837891-2.1914062 0-1.3242188.7353516-2.1708985 1.8837891-2.1708985.8935547 0 1.5996094.5830078 1.7138672 1.4091797h-.4013672c-.1171875-.609375-.65625-1.0371094-1.3125-1.0371094-.8964844 0-1.4736328.7001954-1.4736328 1.7988282 0 1.1132812.5771484 1.8193359 1.4765625 1.8193359.6738281 0 1.1835937-.3603516 1.3095703-.9462891h.4013672c-.1494141.8232422-.796875 1.3183594-1.7138672 1.3183594zm4.8544922-.430664v.3632812h-2.5517578v-4.2275391h2.5517578v.3632813h-2.1533203v1.5205078h2.0449218v.3574219h-2.0449218v1.6230469zm1.078125.3632812h-.3955078v-4.2275391h.3955078l2.4785156 3.5302735h.0205078v-3.5302735h.3955078v4.2275391h-.3867187l-2.4873047-3.5332031h-.0205078zm5.1972656 0h-.4013672v-3.8642578h-1.3945312v-.3632813h3.1933593v.3632813h-1.3974609z" fill="#000"/><rect fill="#928a8a" height="8" rx="2" width="8" x="9" y="13"/><g stroke="#979797" stroke-linecap="round" stroke-width="2"><path d="m13 31h47.5105251"/><path d="m13 41h36"/><path d="m13 51h53.0094331"/></g></g></svg>