<svg height="80" viewBox="0 0 80 80" width="80" xmlns="http://www.w3.org/2000/svg"><g fill="none" fill-rule="evenodd"><path d="m14 11h18l-6.9230769 9.6923077v11.0769231l-4.8461539-3.4615385v-7.6153846z" fill="#9b9b9b" stroke="#000" stroke-linecap="round" stroke-linejoin="round"/><path d="m53 13.7645183c.6036498.2812754 1.6723927.6624611 3.03125.6624611 2.1533203 0 3.2426758-1.1886418 5.3144531-1.1886418 2.0717774 0 3.6914063.9524977 3.6914063.9524977v10.0944637s-1.6240235-1.0070914-3.6914063-1.0070914-3.3000488 1.0070914-5.3144531 1.0884465c-1.2955145.0523216-2.4046217-.4128481-3.03125-.7515263v7.8010873c0 .8267077-.6715729 1.5068618-1.5 1.5068618-.8342028 0-1.5-.674645-1.5-1.5068618v-18.9093532c0-.8267078.6715729-1.5068619 1.5-1.5068619.8342028 0 1.5.674645 1.5 1.5068619z" fill="#f5a623" fill-rule="evenodd"/><path d="m64.5371094 23.4733806v-8.9818229c-.1863527-.0905831-.4356957-.1980422-.7375989-.3063308-.7791612-.2794744-1.6100497-.4468893-2.4538074-.4468893-.7615872 0-1.3025516.1365482-2.3571439.527621-.0476314.0176724-.0476314.0176724-.0954927.035443-1.2414319.4608563-1.8878548.6255778-2.8618165.6255778-1.2234342 0-2.3185603-.2787627-3.2424289-.7092465l-.2888211-.1345785v-1.5762925c0-.5588894-.4447465-1.0068619-1-1.0068619-.5495992 0-1 .4536038-1 1.0068619v18.9093532c0 .5588893.4447465 1.0068618 1 1.0068618.5495992 0 1-.4536038 1-1.0068618v-8.639682l.7377369.3987298c.8363695.4520384 1.7877187.7316044 2.7733362.6917985.7463633-.0301431 1.2691758-.1550294 2.4015376-.5181454.0114336-.0036665.0114336-.0036665.0228765-.0073357 1.3014272-.4173061 1.9526436-.5633727 2.9102159-.5633727.9705769 0 1.9147216.2012318 2.7981439.5359882.1406948.0533137.271998.1067686.3932624.1591848z" stroke="#f5a623"/><g fill-rule="nonzero" transform="matrix(.70710678 .70710678 -.70710678 .70710678 26.849243 43.464466)"><path d="m.29289322 6.89289322c0-2.4 3-6.6 6-6.6s5.99999998 4.2 5.99999998 6.6v14.99987258c0 1.3255538-1.0649199 2.4001274-2.39953796 2.4001274h-7.20092404c-1.32522823 0-2.39953798-1.0680701-2.39953798-2.4001274zm6 1.8c1.3254834 0 2.4-1.0745166 2.4-2.4s-1.0745166-2.4-2.4-2.4-2.4 1.0745166-2.4 2.4 1.0745166 2.4 2.4 2.4z" fill="#3488c8" fill-rule="evenodd"/><path d="m.79289322 6.89289322v14.99987258c0 1.0534864.84802028 1.9001274 1.89953798 1.9001274h7.20092404c1.05490166 0 1.89953796-.8471335 1.89953796-1.9001274v-14.99987258c0-2.44196671-3.04836106-6.1-5.49999998-6.1-2.45163893 0-5.5 3.65803329-5.5 6.1zm5.5 2.3c-1.60162578 0-2.9-1.29837423-2.9-2.9 0-1.60162578 1.29837422-2.9 2.9-2.9 1.60162577 0 2.9 1.29837422 2.9 2.9 0 1.60162577-1.29837423 2.9-2.9 2.9z" stroke="#3488c8"/></g><g fill="#9b9b9b"><rect height="2.907853" rx="1.453926" width="18.901042" x="46" y="49"/><rect height="2.907853" rx="1.453926" width="18.901042" x="46" y="56.269631"/><rect height="2.907853" rx="1.453926" width="18.901042" x="46" y="63.539263"/></g></g></svg>