<svg height="100" viewBox="0 0 582 100" width="582" xmlns="http://www.w3.org/2000/svg"><g fill="#30619b"><g transform="translate(5 20)"><path d="m9.16256158 65.8374384v-46.2561576c0-2.5301715-2.05110928-4.5812808-4.58128079-4.5812808-2.53017152 0-4.58128079 2.0511093-4.58128079 4.5812808v50.8374384c0 2.5301715 2.05110927 4.5812808 4.58128079 4.5812808h50.83743841c2.5301715 0 4.5812808-2.0511093 4.5812808-4.5812808s-2.0511093-4.5812808-4.5812808-4.5812808z"/><path d="m24.1625616 50.8374384v-46.25615761c0-2.53017152-2.0511093-4.58128079-4.5812808-4.58128079s-4.5812808 2.05110927-4.5812808 4.58128079v50.83743841c0 2.5301715 2.0511093 4.5812808 4.5812808 4.5812808h50.8374384c2.5301715 0 4.5812808-2.0511093 4.5812808-4.5812808s-2.0511093-4.5812808-4.5812808-4.5812808z" transform="matrix(-1 0 0 -1 90 60)"/><path d="m38.0506329 36.9493671v-13.4240506c0-1.3946938-1.1306227-2.5253165-2.5253164-2.5253165-1.3946938 0-2.5253165 1.1306227-2.5253165 2.5253165v15.949367c0 1.3946938 1.1306227 2.5253165 2.5253165 2.5253165h15.949367c1.3946938 0 2.5253165-1.1306227 2.5253165-2.5253165 0-1.3946937-1.1306227-2.5253164-2.5253165-2.5253164z" transform="matrix(-1 0 0 -1 87 63)"/></g><path d="m103 10.6413559h30.856402c25.235501 0 40.166018 15.2176272 40.166018 41.8630509s-14.871966 42.2711864-40.166018 42.2711864h-30.856402zm15.10617 12.7105085v58.7132203h14.169353c16.979804 0 26.347972-10.32 26.347972-29.5023728 0-18.8325424-9.48527-29.2108475-26.347972-29.2108475zm66.455438 71.4237288v-61.8033898h13.993701v10.7864407h.292755c2.107837-7.521356 7.553085-11.8359322 14.871966-11.8359322 1.873633 0 3.513062.3498305 4.566981.5830508v13.1186441c-1.229572-.4664407-3.454511-.8162712-5.913655-.8162712-8.255698 0-13.232537 5.3057627-13.232537 13.9932203v35.9742373zm58.14119.9911865c-12.002965 0-20.727071-7.521356-20.727071-18.6576272 0-10.9613559 8.489902-17.5498305 23.596072-18.4827118l16.394293-.9328814v-4.4311864c0-6.4718644-4.391328-10.2033898-11.593107-10.2033898-6.909024 0-11.300352 3.3233898-12.237169 8.4542372h-13.525292c.644062-11.5444067 10.539189-19.8237288 26.347971-19.8237288 15.398926 0 25.411155 8.1044068 25.411155 20.5233899v42.5627118h-14.052251v-9.8535593h-.292756c-3.571614 6.7050847-11.358903 10.8447458-19.321845 10.8447458zm4.391328-10.961356c8.255698 0 14.871966-5.4806779 14.871966-12.9437288v-4.7227118l-14.345006.8745762c-7.026126.4664407-11.066148 3.6149153-11.066148 8.5125424 0 5.0725424 4.215675 8.279322 10.539188 8.279322zm45.025755 9.9701695v-50.6088135h-8.489901v-11.0196611h8.489901v-5.4806779c0-12.0108475 5.738003-17.6664407 19.204744-17.6664407 2.869001 0 6.030758.2915254 7.84584.6413559v10.1450848c-1.229572-.1749153-2.927552-.3498305-4.625533-.3498305-5.562349 0-8.080044 2.6237288-8.080044 7.6379661v5.0725423h12.412822v11.0196611h-12.178618v50.6088135zm40.400223-76.2630508h14.57921v14.459661h11.71021v11.1945763h-11.71021v32.1261017c0 5.0725423 2.342042 7.4047457 7.494534 7.4047457 1.346675 0 3.220308-.1166102 4.157125-.2915254v11.0779661c-1.580879.3498305-4.44988.5830508-7.553085.5830508-13.40819 0-18.677784-4.7227118-18.677784-16.7335593v-34.1667796h-8.899759v-11.1945763h8.899759zm35.072077 32.1844068c0-11.3111865 9.895127-19.0074577 24.884195-19.0074577 15.10617 0 24.708542 8.1044068 25.059848 19.8237288h-13.583843c-.585511-5.5972881-4.742635-9.1538983-11.476005-9.1538983-6.440615 0-10.714842 3.0318644-10.714842 7.5796611 0 3.5566101 2.576246 6.0054237 9.075412 7.4630508l10.304985 2.2738983c12.88123 2.8569492 17.858069 7.8128814 17.858069 16.7918644 0 11.661017-10.773393 19.5322034-25.996665 19.5322034-16.21864 0-25.821011-7.6962712-26.992032-19.6488136h14.345006c1.11247 6.0054238 5.269594 9.0372882 12.647026 9.0372882 7.084677 0 11.476005-2.9152543 11.476005-7.521356 0-3.7315254-2.224939-5.8305084-8.724106-7.2881355l-10.304984-2.2738984c-11.885862-2.6237288-17.858069-8.4542372-17.858069-17.6081355z"/><path d="m471.10554 78.7108434c0 10.2068273-6.083691 16.2891566-16.381194 16.2891566-10.876902 0-17.724346-7.5441767-17.724346-19.6305221 0-11.87751 6.821108-19.2911646 17.645337-19.2911646 8.453961 0 14.853688 4.9598393 16.170504 12.4779116h-6.057355c-1.422161-4.6726908-5.135583-7.3614458-10.086812-7.3614458-7.268826 0-11.640656 5.2730924-11.640656 14.12249 0 9.0060241 4.503512 14.566265 11.746001 14.566265 6.1627 0 10.429185-3.9156626 10.508194-9.6325301v-.6526104h-9.823449v-4.7248996h15.643776zm28.838276-11.7991968v27.4618474h-5.451619v-4.6465864h-.131682c-1.527507 3.2891567-4.345494 5.1425703-8.585642 5.1425703-6.031018 0-9.718104-3.8895582-9.718104-10.1807229v-17.7771084h5.688647v16.6807229c0 4.1767068 2.00156 6.4216867 5.925673 6.4216867 4.108466 0 6.584081-2.8192771 6.584081-7.1004016v-16.002008zm8.638314-4.437751c-1.817206 0-3.29204-1.4618474-3.29204-3.2369478 0-1.8012048 1.474834-3.2369478 3.29204-3.2369478 1.817207 0 3.265705 1.435743 3.265705 3.2369478 0 1.7751004-1.448498 3.2369478-3.265705 3.2369478zm-2.844323 31.8995984v-27.4618474h5.688646v27.4618474zm21.911822.4698795c-7.005462 0-11.640655-5.5341366-11.640655-14.2008032 0-8.6666667 4.635193-14.1746988 11.587983-14.1746988 3.976785 0 7.137144 1.9839357 8.690987 5.0120482h.105345v-14.7751004h5.714983v37.6686747h-5.530629v-4.6726908h-.105345c-1.632852 3.1325301-4.793211 5.1425703-8.822669 5.1425703zm1.501171-23.624498c-4.503512 0-7.321498 3.6546185-7.321498 9.4236948 0 5.7951807 2.817986 9.4236948 7.321498 9.4236948 4.37183 0 7.295162-3.6807229 7.295162-9.4236948 0-5.6907631-2.923332-9.4236948-7.295162-9.4236948zm37.134218 15.0883534h5.398946c-.79009 5.0120482-5.583301 8.5883534-11.930355 8.5883534-8.137924 0-13.062817-5.4558233-13.062817-14.1224899 0-8.6144579 5.003902-14.3574297 12.82579-14.3574297 7.690207 0 12.483418 5.37751 12.483418 13.7048192v1.9317269h-19.567889v.3393575c0 4.7771084 2.896996 7.9357429 7.45318 7.9357429 3.239368 0 5.635973-1.6184739 6.399727-4.0200803zm-6.768436-15.3493976c-3.976785 0-6.768435 3.0020081-7.058135 7.1526105h13.852907c-.131682-4.2028113-2.817987-7.1526105-6.794772-7.1526105z" opacity=".488723"/></g></svg>