<svg xmlns="http://www.w3.org/2000/svg" viewBox="0 0 440 623" width="408" height="591"><defs><style>@import url('https://fonts.googleapis.com/css2?family=Caveat+Brush&amp;family=Source+Code+Pro&amp;family=Source+Sans+Pro&amp;family=Source+Serif+Pro&amp;display=swap');</style></defs><g id="43f08c66-e708-4f1b-05cc-78c9bbfe8cbe_svg" class="tl-centered-g" transform="translate(55.5, 16) rotate(0, 140.5, 202)"><ellipse class="tl-stroke-hitarea" cx="140.5" cy="202" rx="140.5" ry="202"/><path d="M 57.61,361.45 Q 57.61,361.45 55.43,358.88 53.24,356.30 52.31,355.13 51.38,353.96 50.29,352.55 49.21,351.14 47.99,349.47 46.76,347.80 45.41,345.87 44.07,343.93 42.61,341.70 41.15,339.48 39.59,336.95 38.04,334.42 36.41,331.58 34.78,328.73 33.09,325.55 31.41,322.37 29.70,318.84 27.98,315.30 26.27,311.41 24.55,307.51 22.86,303.24 21.17,298.97 19.54,294.32 17.91,289.67 16.36,284.63 14.82,279.59 13.40,274.16 11.99,268.74 10.73,262.93 9.48,257.12 8.43,250.94 7.37,244.76 6.56,238.23 5.75,231.70 5.21,224.84 4.68,217.98 4.47,210.82 4.25,203.66 4.40,196.25 4.54,188.83 5.08,181.21 5.62,173.59 6.58,165.82 7.55,158.04 8.97,150.18 10.40,142.32 12.31,134.45 14.21,126.57 16.63,118.76 19.04,110.95 21.97,103.30 24.90,95.64 28.36,88.23 31.82,80.82 35.81,73.74 39.79,66.67 44.29,60.04 48.79,53.41 53.79,47.31 58.79,41.22 64.26,35.77 69.73,30.31 75.63,25.59 81.53,20.87 87.82,16.98 94.11,13.09 100.73,10.10 107.35,7.12 114.23,5.12 121.11,3.13 128.18,2.18 135.26,1.23 142.44,1.38 149.63,1.54 156.84,2.82 164.04,4.11 171.19,6.55 178.33,8.99 185.31,12.58 192.29,16.17 199.02,20.90 205.75,25.63 212.13,31.45 218.51,37.28 224.45,44.15 230.39,51.02 235.80,58.86 241.22,66.70 246.03,75.42 250.83,84.13 254.96,93.62 259.09,103.11 262.49,113.24 265.88,123.38 268.48,134.03 271.08,144.68 272.85,155.71 274.63,166.73 275.55,177.98 276.47,189.23 276.52,200.55 276.58,211.86 275.77,223.10 274.96,234.34 273.31,245.34 271.66,256.35 269.19,266.97 266.73,277.60 263.49,287.71 260.24,297.82 256.28,307.29 252.32,316.76 247.71,325.48 243.09,334.19 237.89,342.05 232.69,349.92 226.99,356.84 221.29,363.77 215.16,369.70 209.04,375.63 202.59,380.51 196.13,385.39 189.44,389.20 182.74,393.00 175.89,395.73 169.04,398.45 162.12,400.09 155.21,401.73 148.31,402.32 141.41,402.90 134.61,402.47 127.80,402.03 121.17,400.63 114.53,399.22 108.13,396.91 101.73,394.60 95.62,391.45 89.51,388.31 83.74,384.40 77.96,380.50 72.57,375.92 67.18,371.34 62.20,366.18 57.22,361.01 52.68,355.35 48.13,349.69 44.04,343.63 39.94,337.56 36.30,331.18 32.66,324.80 29.48,318.18 26.30,311.57 23.56,304.80 20.82,298.03 18.52,291.19 16.22,284.35 14.34,277.50 12.45,270.65 10.96,263.86 9.47,257.07 8.34,250.39 7.22,243.72 6.43,237.20 5.65,230.69 5.17,224.39 4.69,218.09 4.48,212.03 4.28,205.97 4.31,200.18 4.35,194.40 4.59,188.91 4.83,183.42 5.25,178.25 5.67,173.08 6.23,168.23 6.79,163.39 7.46,158.88 8.13,154.38 8.89,150.21 9.64,146.05 10.45,142.22 11.25,138.40 12.09,134.92 12.93,131.44 13.77,128.29 14.61,125.15 15.43,122.34 16.26,119.53 17.04,117.04 17.83,114.55 18.56,112.38 19.30,110.22 19.96,108.36 20.62,106.50 21.20,104.95 21.79,103.39 22.27,102.14 22.76,100.88 23.15,99.92 23.53,98.95 23.81,98.28" stroke="none" fill="none" pointer-events="none"/><path d="M 57.60,361.46 Q 57.60,361.46 54.75,359.45 51.91,357.44 49.57,355.05 47.22,352.66 44.26,349.26 41.30,345.85 37.90,341.23 34.49,336.60 32.70,333.77 30.91,330.95 29.10,327.75 27.29,324.55 25.51,320.96 23.73,317.37 22.01,313.38 20.29,309.39 18.67,305.00 17.05,300.60 15.56,295.81 14.08,291.01 12.72,285.83 11.36,280.65 10.13,275.10 8.89,269.55 7.77,263.64 6.64,257.73 5.69,251.47 4.73,245.21 3.99,238.61 3.25,232.01 2.76,225.09 2.28,218.16 2.11,210.95 1.93,203.73 2.11,196.26 2.28,188.79 2.84,181.11 3.41,173.43 4.39,165.60 5.38,157.77 6.83,149.85 8.27,141.94 10.20,134.00 12.13,126.07 14.57,118.20 17.00,110.32 19.96,102.60 22.92,94.88 26.41,87.40 29.90,79.92 33.93,72.78 37.95,65.64 42.50,58.93 47.05,52.22 52.10,46.05 57.16,39.88 62.70,34.35 68.24,28.82 74.23,24.02 80.22,19.23 86.61,15.26 93.00,11.30 99.74,8.25 106.48,5.20 113.51,3.16 120.53,1.11 127.76,0.13 134.98,-0.84 142.33,-0.70 149.68,-0.56 157.05,0.74 164.42,2.04 171.71,4.52 179.01,7.00 186.13,10.65 193.26,14.30 200.11,19.11 206.96,23.91 213.44,29.82 219.93,35.73 225.95,42.69 231.98,49.65 237.46,57.58 242.95,65.51 247.81,74.31 252.67,83.12 256.85,92.69 261.02,102.27 264.45,112.49 267.87,122.71 270.49,133.45 273.12,144.18 274.91,155.29 276.70,166.40 277.63,177.73 278.56,189.06 278.62,200.45 278.68,211.85 277.87,223.17 277.06,234.49 275.40,245.57 273.74,256.66 271.26,267.37 268.77,278.07 265.51,288.27 262.25,298.46 258.25,308.02 254.26,317.57 249.61,326.37 244.95,335.18 239.70,343.13 234.45,351.08 228.68,358.09 222.91,365.11 216.70,371.12 210.50,377.14 203.95,382.10 197.40,387.07 190.59,390.95 183.77,394.83 176.79,397.62 169.81,400.40 162.75,402.09 155.69,403.78 148.64,404.39 141.58,404.99 134.62,404.56 127.67,404.13 120.88,402.70 114.09,401.28 107.55,398.93 101.01,396.58 94.78,393.37 88.54,390.17 82.66,386.20 76.79,382.23 71.30,377.59 65.82,372.94 60.77,367.70 55.71,362.47 51.10,356.74 46.49,351.01 42.35,344.87 38.20,338.74 34.52,332.29 30.84,325.84 27.62,319.16 24.40,312.48 21.64,305.65 18.88,298.82 16.55,291.92 14.23,285.02 12.33,278.11 10.43,271.21 8.92,264.36 7.42,257.52 6.28,250.79 5.15,244.06 4.35,237.50 3.56,230.94 3.08,224.59 2.59,218.25 2.39,212.14 2.19,206.04 2.23,200.21 2.28,194.38 2.55,188.86 2.81,183.33 3.22,178.12 3.63,172.91 4.17,168.03 4.71,163.15 5.37,158.61 6.03,154.06 6.79,149.86 7.54,145.67 8.37,141.82 9.21,137.97 10.09,134.47 10.98,130.97 11.90,127.82 12.81,124.67 13.74,121.86 14.66,119.06 16.42,114.45 18.19,109.84 19.69,106.51 21.20,103.17 22.64,100.38 24.08,97.59 24.08,97.60 24.09,97.60 24.09,97.60 24.10,97.60 23.23,100.61 22.37,103.61 21.39,107.10 20.41,110.59 19.13,115.29 17.86,119.99 17.13,122.81 16.41,125.63 15.64,128.77 14.88,131.91 14.09,135.37 13.30,138.83 12.52,142.63 11.74,146.43 10.99,150.56 10.23,154.69 9.55,159.16 8.86,163.63 8.28,168.43 7.70,173.24 7.28,178.37 6.85,183.51 6.63,188.96 6.41,194.41 6.39,200.15 6.37,205.90 6.57,211.91 6.78,217.93 7.26,224.18 7.73,230.44 8.51,236.90 9.29,243.37 10.41,249.99 11.52,256.62 13.00,263.35 14.48,270.09 16.34,276.88 18.21,283.68 20.49,290.46 22.77,297.25 25.48,303.95 28.19,310.66 31.34,317.21 34.49,323.76 38.09,330.07 41.68,336.39 45.73,342.38 49.77,348.38 54.25,353.97 58.74,359.55 63.64,364.65 68.54,369.74 73.84,374.25 79.14,378.76 84.81,382.60 90.47,386.44 96.46,389.53 102.44,392.63 108.71,394.90 114.97,397.17 121.45,398.55 127.94,399.94 134.59,400.37 141.23,400.81 147.98,400.25 154.72,399.69 161.50,398.09 168.27,396.49 174.98,393.84 181.70,391.18 188.28,387.45 194.87,383.71 201.22,378.92 207.58,374.12 213.62,368.28 219.67,362.43 225.30,355.60 230.94,348.76 236.09,340.98 241.24,333.21 245.81,324.58 250.39,315.95 254.32,306.56 258.24,297.18 261.46,287.15 264.68,277.12 267.13,266.58 269.58,256.03 271.23,245.11 272.87,234.19 273.67,223.03 274.48,211.87 274.42,200.64 274.37,189.40 273.46,178.23 272.55,167.06 270.79,156.12 269.04,145.18 266.46,134.61 263.88,124.04 260.53,114.00 257.17,103.95 253.08,94.55 248.99,85.15 244.24,76.52 239.49,67.89 234.14,60.14 228.80,52.39 222.95,45.61 217.09,38.83 210.82,33.09 204.54,27.35 197.94,22.69 191.33,18.04 184.49,14.51 177.65,10.97 170.66,8.57 163.67,6.18 156.63,4.91 149.58,3.64 142.56,3.48 135.53,3.32 128.61,4.23 121.69,5.15 114.95,7.09 108.21,9.04 101.71,11.96 95.21,14.88 89.03,18.70 82.84,22.52 77.03,27.16 71.21,31.80 65.81,37.18 60.42,42.56 55.48,48.58 50.54,54.59 46.08,61.15 41.63,67.71 37.69,74.71 33.74,81.71 30.31,89.06 26.89,96.40 23.98,103.99 21.08,111.58 18.69,119.33 16.30,127.08 14.41,134.89 12.53,142.71 11.12,150.51 9.72,158.31 8.77,166.03 7.83,173.75 7.32,181.31 6.80,188.88 6.69,196.23 6.57,203.59 6.83,210.69 7.08,217.79 7.66,224.59 8.25,231.39 9.13,237.85 10.01,244.31 11.16,250.41 12.31,256.51 13.70,262.22 15.08,267.93 16.68,273.23 18.28,278.53 20.01,283.43 21.74,288.32 23.52,292.83 25.29,297.34 27.05,301.49 28.81,305.64 30.53,309.44 32.24,313.24 33.88,316.72 35.53,320.19 37.09,323.35 38.65,326.52 40.11,329.38 41.58,332.25 44.20,337.13 46.83,342.01 49.01,345.81 51.19,349.62 52.89,352.39 54.58,355.17 56.10,358.31 Z" fill="#1d1d1d" stroke="#1d1d1d" stroke-width="5" pointer-events="none" stroke-linecap="round" stroke-linejoin="round" opacity="1"/></g><g fill="#ff2133" transform="translate(16, 65) rotate(0, 204, 271)"><text font-family="&quot;Source Serif Pro&quot;, serif" font-size="96px" text-anchor="start" alignment-baseline="central" text-align="left" y="62.40">dam</text><text font-family="&quot;Source Serif Pro&quot;, serif" font-size="96px" text-anchor="start" alignment-baseline="central" text-align="left" y="187.20">bro</text></g></svg>